<?xml version="1.0" encoding="UTF-8"?>
<svg width="512" height="512" viewBox="0 0 512 512" fill="none" xmlns="http://www.w3.org/2000/svg">
    <circle cx="256" cy="256" r="256" fill="#E8F5E9"/>
    <path d="M256 96C238.3 96 224 110.3 224 128V192L144.7 346.6C137.5 360.3 137.8 376.4 145.4 389.9C153 403.4 167.1 412 182.6 412H329.4C344.9 412 358.1 403.4 366.6 389.9C374.2 376.4 374.5 360.3 367.3 346.6L288 192V128C288 110.3 273.7 96 256 96Z" fill="#198754"/>
    <circle cx="256" cy="128" r="24" fill="#198754"/>
    <path d="M208 320H304L280 272H232L208 320Z" fill="#198754" fill-opacity="0.7"/>
</svg>
